<svg xmlns="http://www.w3.org/2000/svg" width="132.111" height="132.111" viewBox="0 0 132.111 132.111"><path d="M126.827,0H5.284A5.279,5.279,0,0,0,0,5.284V126.827a5.279,5.279,0,0,0,5.284,5.284H126.827a5.279,5.279,0,0,0,5.284-5.284V5.284A5.279,5.279,0,0,0,126.827,0ZM80.34,39.452H103.2v5.565H80.34ZM66.056,85.344A14.782,14.782,0,0,1,61.6,90.463a19.6,19.6,0,0,1-6.407,2.923,27.643,27.643,0,0,1-7.365.941H20.477V38H47.064a36.2,36.2,0,0,1,7.365.71,15.761,15.761,0,0,1,5.681,2.328,10.97,10.97,0,0,1,3.683,4.294,15.085,15.085,0,0,1,1.3,6.606,12.3,12.3,0,0,1-1.932,7.084,13.9,13.9,0,0,1-5.747,4.64A13.353,13.353,0,0,1,65.147,68.9a15.6,15.6,0,0,1,2.56,9.05A15.441,15.441,0,0,1,66.056,85.344ZM112.1,76.624H82.635c0,3.2,1.106,6.275,2.774,7.927,1.684,1.635,4.1,2.461,7.25,2.461a10.023,10.023,0,0,0,5.862-1.717,7.045,7.045,0,0,0,2.989-3.6h9.875c-1.585,4.9-4,8.406-7.266,10.519a21.191,21.191,0,0,1-11.808,3.171,23.816,23.816,0,0,1-8.7-1.536,18.5,18.5,0,0,1-6.589-4.376,20.013,20.013,0,0,1-4.145-6.8,24.758,24.758,0,0,1-1.47-8.686,24.1,24.1,0,0,1,1.5-8.538A19.833,19.833,0,0,1,83.791,54.066a21.445,21.445,0,0,1,8.5-1.651,19.38,19.38,0,0,1,9.083,2.015,18.429,18.429,0,0,1,6.374,5.417,22.08,22.08,0,0,1,3.584,7.745,29.574,29.574,0,0,1,.76,9.033ZM91.949,60.837a9.528,9.528,0,0,0-4.442.925,9.307,9.307,0,0,0-2.84,2.246,7.992,7.992,0,0,0-1.5,2.873,12.351,12.351,0,0,0-.512,2.675H100.9A11,11,0,0,0,98.324,63.1a8.558,8.558,0,0,0-6.374-2.262ZM50.912,59.169c1.437-1.04,2.13-2.758,2.13-5.119a6.647,6.647,0,0,0-.677-3.237,5.208,5.208,0,0,0-1.916-1.965,7.4,7.4,0,0,0-2.741-.991,15.994,15.994,0,0,0-3.187-.281H32.912V60.738H45.479a8.854,8.854,0,0,0,5.433-1.569Zm1.949,11.89a10.391,10.391,0,0,0-6.473-1.85H32.879V84.733H46.123a16.841,16.841,0,0,0,3.484-.347,8.338,8.338,0,0,0,2.94-1.189,5.953,5.953,0,0,0,2.031-2.246,7.93,7.93,0,0,0,.743-3.65c0-2.923-.826-4.987-2.46-6.242Z" fill="#321bfc"/></svg>