<svg xmlns="http://www.w3.org/2000/svg" width="132.111" height="132.111" viewBox="0 0 132.111 132.111"><path d="M66.056,50.326a15.741,15.741,0,1,0,11.123,4.608,15.729,15.729,0,0,0-11.123-4.608Zm36.776-12.091a15.923,15.923,0,0,0-8.968-8.968c-6.193-2.445-20.937-1.9-27.808-1.9s-21.6-.569-27.811,1.9a15.924,15.924,0,0,0-8.968,8.968c-2.442,6.193-1.9,20.952-1.9,27.817s-.546,21.607,1.908,27.82a15.925,15.925,0,0,0,8.968,8.968c6.193,2.445,20.937,1.9,27.811,1.9s21.6.569,27.808-1.9a15.924,15.924,0,0,0,8.968-8.968c2.462-6.193,1.9-20.952,1.9-27.817s.566-21.6-1.9-27.817Zm-36.776,52A24.152,24.152,0,1,1,75.314,88.4a24.181,24.181,0,0,1-9.258,1.833ZM91.233,46.5a1.329,1.329,0,1,1,.012.012ZM117.956,0H14.155A14.155,14.155,0,0,0,0,14.155v103.8a14.155,14.155,0,0,0,14.155,14.155h103.8a14.155,14.155,0,0,0,14.155-14.155V14.155A14.155,14.155,0,0,0,117.956,0Zm-5.048,85.518c-.38,7.558-2.106,14.255-7.623,19.758s-12.208,7.263-19.758,7.623c-7.788.439-31.137.439-38.926,0-7.558-.38-14.231-2.108-19.758-7.623s-7.263-12.214-7.623-19.758c-.439-7.791-.439-31.143,0-38.925.38-7.558,2.085-14.255,7.623-19.758s12.229-7.243,19.758-7.6c7.788-.439,31.138-.439,38.926,0,7.558.38,14.252,2.108,19.758,7.623s7.263,12.214,7.623,19.772C113.347,54.39,113.347,77.721,112.908,85.518Z" fill="#de5df6"/></svg>