<svg xmlns="http://www.w3.org/2000/svg" width="132.106" height="132.119" viewBox="0 0 132.106 132.119"><path d="M113.756,132.119H18.351A18.352,18.352,0,0,1,0,113.766V18.349A18.235,18.235,0,0,1,5.373,5.373,18.512,18.512,0,0,1,18.351,0h95.405a18.512,18.512,0,0,1,12.976,5.373,18.224,18.224,0,0,1,5.373,12.976v95.417a18.352,18.352,0,0,1-18.35,18.352ZM49.975,62.205c-14.165,0-20.617,13.976-20.617,26.958,0,12.246,6.861,24.6,22.189,24.6,6.661,0,12.8-3.975,18.251-11.824,3.807,3.959,8.3,6.226,12.333,6.226,10.72,0,17.833-19.211,20.393-27.472a5.036,5.036,0,0,0-3.22-6.29,4.662,4.662,0,0,0-1.44-.222,4.757,4.757,0,0,0-.479.022,4.872,4.872,0,0,0-1.857.556,5.115,5.115,0,0,0-1.5,1.216,5.215,5.215,0,0,0-.916,1.708c-3.02,9.753-8.46,19.88-10.983,20.442-2.126,0-4.811-1.974-7.182-5.287,6.466-13.886,9.361-30.495,9.361-40.8,0-30.881-7.8-37.36-14.338-37.36-13.783,0-13.943,36.373-13.943,36.74,0,4.251.15,8.271.446,11.95A18.752,18.752,0,0,0,49.975,62.205Zm1.572,41.518c-11.121,0-12.321-10.184-12.321-14.561,0-.691.122-16.924,10.761-16.924,4.17,0,7.387,3.222,7.417,3.254a4.94,4.94,0,0,0,.78.672,65.95,65.95,0,0,0,5.56,17C59.745,100.071,55.528,103.724,51.547,103.724ZM69.365,80.471l0-.01c-2.306-7.959-3.476-17.728-3.476-29.038,0-10.995,2.327-22.034,4.483-25.954.963,1.47,4.086,7.743,4.086,26.575A92.233,92.233,0,0,1,69.37,80.461Z" transform="translate(0 0)" fill="#e32e82"/></svg>