<svg xmlns="http://www.w3.org/2000/svg" width="132.111" height="132.111" viewBox="0 0 132.111 132.111"><path d="M44.639,92.2q.344-.516-.258-1.118-.774-.6-1.2-.172-.344.516.258,1.118Q44.209,92.632,44.639,92.2Zm-2.408-3.526a.787.787,0,0,0-1.032-.344q-.516.344,0,1.032.6.688,1.032.43Q42.747,89.45,42.231,88.676ZM38.7,85.236q.172-.344-.43-.688-.6-.172-.688.172-.258.43.344.688Q38.618,85.58,38.7,85.236Zm1.806,1.978q.172-.086.129-.387a.658.658,0,0,0-.3-.473q-.516-.6-.86-.258t.086.946Q40.081,87.558,40.511,87.214Zm7.4,6.451q.172-.6-.774-.946a.837.837,0,0,0-1.118.344q-.172.6.774.946A.838.838,0,0,0,47.907,93.665Zm3.612.258q0-.688-1.032-.688-.86,0-.86.688t.946.688Q51.52,94.611,51.52,93.923Zm3.354-.6q-.172-.6-1.118-.43t-.774.774q.172.688,1.032.516T54.874,93.321Zm55.218-27.265a42.428,42.428,0,0,0-12.9-31.136,42.428,42.428,0,0,0-31.135-12.9A42.428,42.428,0,0,0,34.92,34.92a42.428,42.428,0,0,0-12.9,31.136A42.6,42.6,0,0,0,30.447,91.9a43.666,43.666,0,0,0,21.675,15.955,2.582,2.582,0,0,0,2.279-.43,2.264,2.264,0,0,0,.731-1.72q0-4.473-.086-8.171-.516.086-1.333.215a26.715,26.715,0,0,1-3.053.172,18.792,18.792,0,0,1-4.128-.344,9.753,9.753,0,0,1-3.741-1.72,6.709,6.709,0,0,1-2.537-3.57q-1.978-5.075-4.9-6.365a1.583,1.583,0,0,1-.387-.3l-.688-.688-.6-.817.344-.645,1.677-.3a6.163,6.163,0,0,1,1.29.172,9.9,9.9,0,0,1,2.58,1.333A8.294,8.294,0,0,1,42.4,87.73a10.264,10.264,0,0,0,3.225,3.612,6.8,6.8,0,0,0,3.741,1.2,15.479,15.479,0,0,0,3.268-.3,14.281,14.281,0,0,0,2.58-.817,9.235,9.235,0,0,1,2.838-5.935,37.45,37.45,0,0,1-7.4-1.591,23.091,23.091,0,0,1-6.279-3.355,14.423,14.423,0,0,1-4.774-6.537A28.069,28.069,0,0,1,37.93,63.733,16.891,16.891,0,0,1,42.489,51.95q-2.064-5.333.43-11.7,1.634-.516,4.688.645a28.413,28.413,0,0,1,5.2,2.537l2.236,1.376a39.049,39.049,0,0,1,11.009-1.462,39.049,39.049,0,0,1,11.009,1.462q.946-.6,2.451-1.548a31.01,31.01,0,0,1,4.774-2.236q3.268-1.29,4.9-.774,2.494,6.365.43,11.7a16.891,16.891,0,0,1,4.559,11.783,28.231,28.231,0,0,1-1.2,8.644A18.476,18.476,0,0,1,89.923,78.4a15.855,15.855,0,0,1-4.6,3.827,22.827,22.827,0,0,1-5.376,2.236,39.723,39.723,0,0,1-5.892,1.032q3.01,2.666,3.01,8.171,0,3.44-.043,7.655t-.043,4.387a2.264,2.264,0,0,0,.731,1.72,2.582,2.582,0,0,0,2.279.43A43.666,43.666,0,0,0,101.664,91.9,42.6,42.6,0,0,0,110.093,66.056Zm22.018-41.285V107.34a24.814,24.814,0,0,1-24.771,24.771H24.771a23.859,23.859,0,0,1-17.5-7.268A23.859,23.859,0,0,1,0,107.34V24.771a23.858,23.858,0,0,1,7.268-17.5A23.858,23.858,0,0,1,24.771,0H107.34a23.859,23.859,0,0,1,17.5,7.268A23.859,23.859,0,0,1,132.111,24.771Z" fill="#262626"/></svg>