<svg xmlns="http://www.w3.org/2000/svg" width="132.111" height="132.111" viewBox="0 0 132.111 132.111"><path d="M25.889,0A25.967,25.967,0,0,0,0,25.889v80.338a25.964,25.964,0,0,0,25.889,25.885h80.338a25.96,25.96,0,0,0,25.885-25.885V25.889A25.964,25.964,0,0,0,106.226,0ZM32.4,21.8c6.826,0,11.031,4.481,11.161,10.372,0,5.761-4.335,10.368-11.293,10.368H32.14c-6.7,0-11.024-4.607-11.024-10.368,0-5.89,4.459-10.372,11.285-10.372ZM91.226,49.333c13.128,0,22.97,8.581,22.97,27.02v34.423H94.244V78.661c0-8.07-2.888-13.576-10.108-13.576-5.512,0-8.8,3.711-10.24,7.3a13.667,13.667,0,0,0-.657,4.868v33.527H53.289s.262-54.4,0-60.035H73.244v8.5c2.651-4.091,7.394-9.91,17.982-9.91ZM22.293,50.745H42.244v60.031H22.293V50.745Z" fill="#1391e3"/></svg>