<svg xmlns="http://www.w3.org/2000/svg" width="210" height="83.446" viewBox="0 0 210 83.446">
  <g id="Group_2860" data-name="Group 2860" transform="translate(-110 -18.276)">
    <g id="Path_7124" data-name="Path 7124" transform="translate(110 20)" fill="rgba(255,255,255,0)">
      <path d="M 200 79.5 L 10 79.5 C 4.761684417724609 79.5 0.5 75.23831939697266 0.5 70 L 0.5 10 C 0.5 4.761684417724609 4.761684417724609 0.5 10 0.5 L 200 0.5 C 205.2383117675781 0.5 209.5 4.761684417724609 209.5 10 L 209.5 70 C 209.5 75.23831939697266 205.2383117675781 79.5 200 79.5 Z" stroke="none"/>
      <path d="M 10 1 C 5.037399291992188 1 1 5.037391662597656 1 10 L 1 70 C 1 74.96260833740234 5.037399291992188 79 10 79 L 200 79 C 204.9626007080078 79 209 74.96260833740234 209 70 L 209 10 C 209 5.037391662597656 204.9626007080078 1 200 1 L 10 1 M 10 0 L 200 0 C 205.5228424072266 0 210 4.477157592773438 210 10 L 210 70 C 210 75.52284240722656 205.5228424072266 80 200 80 L 10 80 C 4.477157592773438 80 0 75.52284240722656 0 70 L 0 10 C 0 4.477157592773438 4.477157592773438 0 10 0 Z" stroke="none" fill="#fff"/>
    </g>
    <g id="Path_7123" data-name="Path 7123" transform="translate(125 35)" fill="rgba(255,255,255,0)">
      <path d="M 170 49.5 L 10 49.5 C 4.761682033538818 49.5 0.5 45.23831939697266 0.5 40 L 0.5 10 C 0.5 4.761682033538818 4.761682033538818 0.5 10 0.5 L 170 0.5 C 175.2383117675781 0.5 179.5 4.761682033538818 179.5 10 L 179.5 40 C 179.5 45.23831939697266 175.2383117675781 49.5 170 49.5 Z" stroke="none"/>
      <path d="M 10 1 C 5.037384033203125 1 1 5.037387847900391 1 10 L 1 40 C 1 44.96261215209961 5.037384033203125 49 10 49 L 170 49 C 174.9626159667969 49 179 44.96261215209961 179 40 L 179 10 C 179 5.037387847900391 174.9626159667969 1 170 1 L 10 1 M 10 0 L 170 0 C 175.5228424072266 0 180 4.477157592773438 180 10 L 180 40 C 180 45.52284240722656 175.5228424072266 50 170 50 L 10 50 C 4.477157592773438 50 0 45.52284240722656 0 40 L 0 10 C 0 4.477157592773438 4.477157592773438 0 10 0 Z" stroke="none" fill="#3a3a3a"/>
    </g>
    <g id="Path_7130" data-name="Path 7130" transform="matrix(0.966, -0.259, 0.259, 0.966, 123.129, 64.864)" fill="rgba(255,255,255,0)">
      <path d="M 170 37.65900421142578 L 10 37.65900421142578 C 4.761682033538818 37.65900421142578 0.5 34.45968627929688 0.5 30.52720832824707 L 0.5 7.631799697875977 C 0.5 3.69932222366333 4.761682033538818 0.5000039935112 10 0.5000039935112 L 170 0.5000039935112 C 175.2383117675781 0.5000039935112 179.5 3.69932222366333 179.5 7.631799697875977 L 179.5 30.52720832824707 C 179.5 34.45968627929688 175.2383117675781 37.65900421142578 170 37.65900421142578 Z" stroke="none"/>
      <path d="M 10 1.000003814697266 C 7.546859741210938 1.000003814697266 5.251113891601562 1.721027374267578 3.535614013671875 3.030254364013672 C 1.900497436523438 4.278141021728516 1 5.912322998046875 1 7.631799697875977 L 1 30.52720832824707 C 1 32.24668502807617 1.900497436523438 33.88086700439453 3.535614013671875 35.12875366210938 C 5.251113891601562 36.43798065185547 7.546859741210938 37.15900421142578 10 37.15900421142578 L 170 37.15900421142578 C 172.4531402587891 37.15900421142578 174.7488861083984 36.43798065185547 176.4643859863281 35.12875366210938 C 178.0995025634766 33.88086700439453 179 32.24668502807617 179 30.52720832824707 L 179 7.631799697875977 C 179 5.912322998046875 178.0995025634766 4.278141021728516 176.4643859863281 3.030254364013672 C 174.7488861083984 1.721027374267578 172.4531402587891 1.000003814697266 170 1.000003814697266 L 10 1.000003814697266 M 10 3.814697265625e-06 L 170 3.814697265625e-06 C 175.5228424072266 3.814697265625e-06 180 3.416866302490234 180 7.631799697875977 L 180 30.52720832824707 C 180 34.74214172363281 175.5228424072266 38.15900421142578 170 38.15900421142578 L 10 38.15900421142578 C 4.477157592773438 38.15900421142578 0 34.74214172363281 0 30.52720832824707 L 0 7.631799697875977 C 0 3.416866302490234 4.477157592773438 3.814697265625e-06 10 3.814697265625e-06 Z" stroke="none" fill="#3a3a3a"/>
    </g>
    <g id="Path_7131" data-name="Path 7131" transform="matrix(0.966, 0.259, -0.259, 0.966, 132.962, 18.435)" fill="rgba(255,255,255,0)">
      <path d="M 170 37.33231735229492 L 10 37.33231735229492 C 4.761682033538818 37.33231735229492 0.5 34.16231536865234 0.5 30.26586151123047 L 0.5 7.566452026367188 C 0.5 3.669997692108154 4.761682033538818 0.4999976754188538 10 0.4999976754188538 L 170 0.4999976754188538 C 175.2383117675781 0.4999976754188538 179.5 3.669997692108154 179.5 7.566452026367188 L 179.5 30.26586151123047 C 179.5 34.16231536865234 175.2383117675781 37.33231735229492 170 37.33231735229492 Z" stroke="none"/>
      <path d="M 10 0.9999961853027344 C 7.545379638671875 0.9999961853027344 5.248458862304688 1.715110778808594 3.532318115234375 3.01361083984375 C 1.899322509765625 4.249202728271484 1 5.866111755371094 1 7.566452026367188 L 1 30.26583862304688 C 1 31.96620178222656 1.899322509765625 33.58308792114258 3.532318115234375 34.81870269775391 C 5.248458862304688 36.11720275878906 7.545379638671875 36.83231735229492 10 36.83231735229492 L 170 36.83231735229492 C 172.4546203613281 36.83231735229492 174.7515411376953 36.11720275878906 176.4676818847656 34.81870269775391 C 178.1006774902344 33.58308792114258 179 31.96620178222656 179 30.26583862304688 L 179 7.566452026367188 C 179 5.866111755371094 178.1006774902344 4.249202728271484 176.4676818847656 3.01361083984375 C 174.7515411376953 1.715110778808594 172.4546203613281 0.9999961853027344 170 0.9999961853027344 L 10 0.9999961853027344 M 10 -3.814697265625e-06 L 170 -3.814697265625e-06 C 175.5228424072266 -3.814697265625e-06 180 3.387611389160156 180 7.566452026367188 L 180 30.26583862304688 C 180 34.44467926025391 175.5228424072266 37.83231735229492 170 37.83231735229492 L 10 37.83231735229492 C 4.477157592773438 37.83231735229492 0 34.44467926025391 0 30.26583862304688 L 0 7.566452026367188 C 0 3.387611389160156 4.477157592773438 -3.814697265625e-06 10 -3.814697265625e-06 Z" stroke="none" fill="#3a3a3a"/>
    </g>
    <g id="Path_7122" data-name="Path 7122" transform="translate(145 46)" fill="rgba(255,255,255,0)">
      <path d="M 130 27.5 L 10 27.5 C 4.761691093444824 27.5 0.5 23.23830986022949 0.5 18 L 0.5 10 C 0.5 4.761691093444824 4.761691093444824 0.5 10 0.5 L 130 0.5 C 135.2383117675781 0.5 139.5 4.761691093444824 139.5 10 L 139.5 18 C 139.5 23.23830986022949 135.2383117675781 27.5 130 27.5 Z" stroke="none"/>
      <path d="M 10 1 C 5.037384033203125 1 1 5.037382125854492 1 10 L 1 18 C 1 22.96261787414551 5.037384033203125 27 10 27 L 130 27 C 134.9626159667969 27 139 22.96261787414551 139 18 L 139 10 C 139 5.037382125854492 134.9626159667969 1 130 1 L 10 1 M 10 0 L 130 0 C 135.5228424072266 0 140 4.477146148681641 140 10 L 140 18 C 140 23.52285385131836 135.5228424072266 28 130 28 L 10 28 C 4.477157592773438 28 0 23.52285385131836 0 18 L 0 10 C 0 4.477146148681641 4.477157592773438 0 10 0 Z" stroke="none" fill="#3a3a3a"/>
    </g>
    <g id="Path_7128" data-name="Path 7128" transform="matrix(0.966, -0.259, 0.259, 0.966, 145.028, 69.32)" fill="rgba(255,255,255,0)">
      <path d="M 130 17.71454048156738 L 10 17.71454048156738 C 7.424545288085938 17.71454048156738 5.010145664215088 17.06661415100098 3.201581716537476 15.89008617401123 C 1.459436416625977 14.75679588317871 0.5 13.27204990386963 0.5 11.70934104919434 L 0.5 6.505195617675781 C 0.5 4.94248628616333 1.459436416625977 3.457741022109985 3.201581716537476 2.324450254440308 C 5.010145664215088 1.147922873497009 7.424545288085938 0.499995619058609 10 0.499995619058609 L 130 0.499995619058609 C 132.5754547119141 0.499995619058609 134.9898376464844 1.147922873497009 136.7984161376953 2.324450254440308 C 138.5405578613281 3.457741022109985 139.5 4.94248628616333 139.5 6.505195617675781 L 139.5 11.70934104919434 C 139.5 13.27204990386963 138.5405578613281 14.75679588317871 136.7984161376953 15.89008617401123 C 134.9898376464844 17.06661415100098 132.5754547119141 17.71454048156738 130 17.71454048156738 Z" stroke="none"/>
      <path d="M 10 0.9999961853027344 C 7.52020263671875 0.9999961853027344 5.20263671875 1.619213104248047 3.4742431640625 2.743558883666992 C 1.878692626953125 3.781486511230469 1 5.117395401000977 1 6.505195617675781 L 1 11.70934104919434 C 1 13.09714126586914 1.878692626953125 14.43305015563965 3.4742431640625 15.47097778320312 C 5.20263671875 16.59532356262207 7.52020263671875 17.21454048156738 10 17.21454048156738 L 130 17.21454048156738 C 132.4797973632812 17.21454048156738 134.79736328125 16.59532356262207 136.5257568359375 15.47097778320312 C 138.1213073730469 14.43305015563965 139 13.09714126586914 139 11.70934104919434 L 139 6.505195617675781 C 139 5.117395401000977 138.1213073730469 3.781486511230469 136.5257568359375 2.743558883666992 C 134.79736328125 1.619213104248047 132.4797973632812 0.9999961853027344 130 0.9999961853027344 L 10 0.9999961853027344 M 10 -3.814697265625e-06 L 130 -3.814697265625e-06 C 135.5228424072266 -3.814697265625e-06 140 2.912467956542969 140 6.505195617675781 L 140 11.70934104919434 C 140 15.30206871032715 135.5228424072266 18.21454048156738 130 18.21454048156738 L 10 18.21454048156738 C 4.477157592773438 18.21454048156738 0 15.30206871032715 0 11.70934104919434 L 0 6.505195617675781 C 0 2.912467956542969 4.477157592773438 -3.814697265625e-06 10 -3.814697265625e-06 Z" stroke="none" fill="#3a3a3a"/>
    </g>
    <g id="Path_7129" data-name="Path 7129" transform="matrix(0.966, 0.259, -0.259, 0.966, 149.759, 33.024)" fill="rgba(255,255,255,0)">
      <path d="M 130 17.8415355682373 L 10 17.8415355682373 C 7.425108909606934 17.8415355682373 5.011181831359863 17.18918991088867 3.202908992767334 16.00466156005859 C 1.459909081459045 14.86291694641113 0.5 13.36646270751953 0.5 11.79098987579346 L 0.5 6.550553321838379 C 0.5 4.975080490112305 1.459909081459045 3.478626251220703 3.202908992767334 2.336880683898926 C 5.011181831359863 1.152353405952454 7.425108909606934 0.5000079870223999 10 0.5000079870223999 L 130 0.5000079870223999 C 132.5748901367188 0.5000079870223999 134.9888000488281 1.152353405952454 136.7970886230469 2.336880683898926 C 138.5400848388672 3.478626251220703 139.5 4.975080490112305 139.5 6.550553321838379 L 139.5 11.79098987579346 C 139.5 13.36646270751953 138.5400848388672 14.86291694641113 136.7970886230469 16.00466156005859 C 134.9888000488281 17.18918991088867 132.5748901367188 17.8415355682373 130 17.8415355682373 Z" stroke="none"/>
      <path d="M 10 1.000007629394531 C 7.521316528320312 1.000007629394531 5.204696655273438 1.623317718505859 3.476898193359375 2.755117416381836 C 1.879638671875 3.801407814025879 1 5.149316787719727 1 6.550553321838379 L 1 11.79098987579346 C 1 13.19222640991211 1.879638671875 14.54013538360596 3.476898193359375 15.58642578125 C 5.204696655273438 16.71822547912598 7.521316528320312 17.3415355682373 10 17.3415355682373 L 130 17.3415355682373 C 132.4786987304688 17.3415355682373 134.7953033447266 16.71822547912598 136.5231018066406 15.58642578125 C 138.120361328125 14.54013538360596 139 13.19222640991211 139 11.79098987579346 L 139 6.550553321838379 C 139 5.149316787719727 138.120361328125 3.801407814025879 136.5231018066406 2.755117416381836 C 134.7953033447266 1.623317718505859 132.4786987304688 1.000007629394531 130 1.000007629394531 L 10 1.000007629394531 M 10 7.62939453125e-06 L 130 7.62939453125e-06 C 135.5228424072266 7.62939453125e-06 140 2.93278980255127 140 6.550553321838379 L 140 11.79098987579346 C 140 15.40875339508057 135.5228424072266 18.3415355682373 130 18.3415355682373 L 10 18.3415355682373 C 4.477157592773438 18.3415355682373 0 15.40875339508057 0 11.79098987579346 L 0 6.550553321838379 C 0 2.93278980255127 4.477157592773438 7.62939453125e-06 10 7.62939453125e-06 Z" stroke="none" fill="#3a3a3a"/>
    </g>
    <g id="Group_2861" data-name="Group 2861" transform="translate(-158.609 12885.867)">
      <path id="Path_7158" data-name="Path 7158" d="M12.758-15.145h2.85c3.847.036,5.2,2.672,5.913,7.3l.321,2.03c.071.214.392.249.321,0l-.249-2.03c-.534-3.847-.214-7.267-.427-7.374a22.93,22.93,0,0,0-4.346-.249H17.1c-3.6,0-4.168.071-5.735.071s-4.88-.071-5.771-.071a22.93,22.93,0,0,0-4.346.249c-.214.107.107,3.527-.392,7.374L.576-5.812c-.071.249.285.214.356,0l.285-2.03c.712-4.631,2.066-7.267,5.878-7.267.819,0,1.924,0,2.921-.036V.35c0,8.763-.178,8.905-1.924,8.905H7.451c-.285,0-.285.321,0,.321,1,0,3.42-.107,3.954-.107.5,0,2.921.107,3.918.107.285,0,.285-.321,0-.321h-.641c-1.745,0-1.924-.142-1.924-8.905Zm13,20.8c0,3.063-.142,3.6-2.173,3.6-.285,0-.285.321,0,.321,1.033,0,3.063-.071,3.6-.071s2.387.071,3.42.071c.285,0,.285-.321,0-.321-1.995,0-2.137-.534-2.137-3.6v-14c0-.178-.534-.321-.641-.249a11.844,11.844,0,0,1-4.453,2.03c-.285.071-.178.356.107.285,1.781-.392,2.28-.285,2.28,2.422Zm-.641-19.165a1.84,1.84,0,0,0,1.852,1.852,1.87,1.87,0,0,0,1.888-1.852,1.9,1.9,0,0,0-1.888-1.888A1.87,1.87,0,0,0,25.119-13.507ZM32.065,9.576c1.033,0,2.957-.071,3.491-.071.57,0,2.636.071,2.921.071s.285-.321,0-.321h-2.1V-4.281c1.6-2.244,2.885-3.242,5.13-3.242,2.173,0,4.061,1.389,4.061,5.806V5.408c0,3.776.036,3.847-2.173,3.847-.285,0-.285.321,0,.321,1.033,0,3.028-.071,3.562-.071.57,0,3.135.071,3.42.071s.285-.321,0-.321c-1.745.036-2.137-.107-2.137-1.46v-12c1.318-1.817,2.494-3.313,5.13-3.313,2.173,0,4.453,1.389,4.453,5.806V5.408c0,3.776-.036,3.847-2.458,3.847-.285,0-.285.321,0,.321,1.033,0,3.135-.071,3.669-.071.57,0,2.992.071,3.277.071s.285-.321,0-.321c-1.745.036-1.817-.107-1.817-1.46V-1.36c0-5.593-2.85-7.231-5.949-7.231-2.779,0-4.631,1.532-6.448,4.025a5.281,5.281,0,0,0-5.415-4.025c-2.743,0-4.6,1.46-6.341,3.918a5.677,5.677,0,0,0-1.425-3.562c-.107-.107-.142-.107-.214-.036a9.237,9.237,0,0,1-2.6,1.5c-.071.036-.107.107,0,.214A4.087,4.087,0,0,1,33.74-3.853v9.19c0,3.812-.071,3.918-1.674,3.918C31.78,9.256,31.78,9.576,32.065,9.576Zm31.739,0c1.033,0,2.957-.071,3.491-.071.57,0,2.636.071,2.921.071s.285-.321,0-.321h-2.1V-4.281c1.6-2.244,2.885-3.242,5.13-3.242,2.173,0,4.061,1.389,4.061,5.806V5.408c0,3.776.036,3.847-2.173,3.847-.285,0-.285.321,0,.321,1.033,0,3.028-.071,3.562-.071.57,0,3.135.071,3.42.071s.285-.321,0-.321c-1.745.036-2.137-.107-2.137-1.46v-12c1.318-1.817,2.494-3.313,5.13-3.313,2.173,0,4.453,1.389,4.453,5.806V5.408c0,3.776-.036,3.847-2.458,3.847-.285,0-.285.321,0,.321,1.033,0,3.135-.071,3.669-.071.57,0,2.992.071,3.277.071s.285-.321,0-.321c-1.745.036-1.817-.107-1.817-1.46V-1.36c0-5.593-2.85-7.231-5.949-7.231-2.778,0-4.631,1.532-6.448,4.025A5.281,5.281,0,0,0,74.42-8.591c-2.743,0-4.6,1.46-6.341,3.918a5.677,5.677,0,0,0-1.425-3.562c-.107-.107-.142-.107-.214-.036a9.237,9.237,0,0,1-2.6,1.5c-.071.036-.107.107,0,.214a4.087,4.087,0,0,1,1.639,2.707v9.19c0,3.812-.071,3.918-1.674,3.918C63.519,9.256,63.519,9.576,63.8,9.576Zm33.912,4.845c-1.318,0-1.995-1.033-3.277-1.033a2.047,2.047,0,0,0-1.959,1.639c0,.641,1.033,1.389,2.957,1.389,3.455,0,5.628-1.995,7.445-6.163l5.7-12.824c1.5-3.42,2.921-5.379,4.6-5.343a.162.162,0,1,0,0-.321c-.285,0-2.672.071-3.206.071-.5,0-2.351-.071-3.348-.071-.285,0-.285.321,0,.321,2.28,0,3.135,1.71,1.639,5.13l-3.99,8.977L99.533-4.316c-1.46-3.17-1.176-3.6.891-3.6.285,0,.285-.321,0-.321-.962,0-3.313.071-3.812.071-.534,0-3.242-.071-3.527-.071a.162.162,0,1,0,0,.321c1.71-.036,2.173.321,4.168,4.666l5.664,12.539-.392.891C100.887,13.886,99.5,14.421,97.716,14.421Z" transform="translate(313.043 -12807.881)" fill="#fff"/>
      <path id="Path_7157" data-name="Path 7157" d="M16.673,2.248c3.384,7.908,3.1,8.514,1.567,8.514h-.748c-.285,0-.178.321.107.321,1.033,0,3.776-.107,4.31-.107s2.565.107,3.6.107c.142,0,.214-.071.214-.178,0-.071-.071-.142-.249-.142h-.285c-1.71,0-2.244-.57-5.771-8.905L12.933-13.6c-.036-.071-.142-.107-.356-.107H12.22c-.178,0-.214.036-.249.107L5.1,3.566A37.649,37.649,0,0,1,2.745,8.624C2,10.013,1.178,10.761.18,10.761H.038c-.107,0-.214.071-.214.142,0,.107.071.178.214.178.891,0,2.494-.071,2.957-.071.606,0,3.42.071,4.061.071.356,0,.427-.107.427-.214s-.071-.178-.249-.178c-.142,0-.712.107-1,.107-1.282,0-1.995-.606-1.995-1.745A16.529,16.529,0,0,1,5.523,3.744l.606-1.5c1.069.036,4.631.107,6.376.107ZM16.5,1.856v.036h-4.2l-6.056.036,4.951-12.5ZM39.9-5.411a7.5,7.5,0,0,0-4.56-1.674A10.344,10.344,0,0,0,25.116,3.067c0,4.916,3.42,8.371,7.481,8.371a9.049,9.049,0,0,0,7.3-3.99c-.036,2.03-.249,3.455-.249,3.669,0,.249.142.392.427.321a18.385,18.385,0,0,1,4.31-.356c.285,0,.285-.321,0-.321-1.781,0-1.817-.427-1.817-3.918V-17.629c0-.178-.606-.321-.712-.249a13.279,13.279,0,0,1-4.31,1.639c-.285.036-.285.356,0,.321,1.781-.321,2.351-.321,2.351,2.743ZM33.843-6.3c2.6,0,4.773,2.173,6.056,3.527V6.878a6.7,6.7,0,0,1-5.486,3.384c-4.417,0-6.8-4.453-6.8-8.62C27.609-3.594,30-6.3,33.843-6.3ZM47.379,4.207c0,5.593,2.529,7.231,5.735,7.231,2.707,0,4.773-1.46,6.59-3.883a26,26,0,0,1-.356,3.562c0,.214,0,.356.285.321a34.741,34.741,0,0,1,4.631-.356.16.16,0,0,0,0-.321c-1.745,0-1.888-.321-1.888-3.918V-6.694c0-.178-.534-.321-.641-.249a13.278,13.278,0,0,1-4.31,1.6c-.285.036-.285.356,0,.321,1.781-.321,2.28-.392,2.28,2.672V7.128c-1.71,2.28-3.17,3.242-5.415,3.242-2.173,0-4.2-1.389-4.2-5.806V-6.694c0-.178-.534-.321-.641-.249A13.5,13.5,0,0,1,45.1-5.34c-.285.036-.285.356,0,.321,1.781-.321,2.28-.392,2.28,2.672ZM67.114,10.8c0,.214.071.321.178.321.178,0,.392-.249,1.532-1.817a7.946,7.946,0,0,0,5.415,2.137A10.313,10.313,0,0,0,84.426,1.286c0-4.916-3.455-8.371-7.516-8.371a8.866,8.866,0,0,0-7.124,3.847V-17.629c0-.178-.534-.321-.641-.249a13.4,13.4,0,0,1-4.31,1.959c-.285.036-.285.356,0,.321,1.781-.321,2.28-.641,2.28,2.422Zm8.62-.142c-2.565,0-4.666-1.959-5.949-3.348V-2.846A6.672,6.672,0,0,1,75.164-5.91c4.417,0,6.626,4.31,6.626,8.478C81.79,7.8,79.581,10.654,75.734,10.654ZM88.416,7.163c0,3.063-.142,3.6-2.173,3.6-.285,0-.285.321,0,.321,1.033,0,3.063-.071,3.6-.071s2.387.071,3.42.071c.285,0,.285-.321,0-.321-1.995,0-2.137-.534-2.137-3.6v-14c0-.178-.534-.321-.641-.249a11.844,11.844,0,0,1-4.453,2.03c-.285.071-.178.356.107.285,1.781-.392,2.28-.285,2.28,2.422ZM87.774-12a1.84,1.84,0,0,0,1.852,1.852A1.87,1.87,0,0,0,91.515-12a1.9,1.9,0,0,0-1.888-1.888A1.87,1.87,0,0,0,87.774-12Z" transform="translate(340.888 -12840.151)" fill="#fff"/>
      <path id="Path_7160" data-name="Path 7160" d="M197.315,309.843c-.153.083-.71.167-.866.251-1.865,1.009-3.793,2.054-5.462,2.165a.911.911,0,0,1-.961-.919v-.531a.644.644,0,0,0-.644-.644H186v-2.737h3.381a.644.644,0,0,0,.644-.644v-.53a.912.912,0,0,1,.961-.919c1.669.11,3.6,1.155,5.462,2.165.156.085.713.168.866.25Z" transform="translate(134.626 -13142.765)" fill="#fff"/>
      <path id="Path_7161" data-name="Path 7161" d="M355.451,255.88,353,258.336l-2.455-2.455L353,253.424Z" transform="translate(-16.668 -13095.034)" fill="#3e81c8"/>
      <path id="Path_7162" data-name="Path 7162" d="M256.875,157.357l-2.416,2.415-2.415-2.415,2.415-2.415Z" transform="translate(73.898 -13004.479)" fill="#3e81c8"/>
      <path id="Path_7163" data-name="Path 7163" d="M155.783,56.05l-2.616,2.617L150.55,56.05l2.616-2.616Z" transform="translate(167.222 -12911.144)" fill="#3e81c8"/>
      <path id="Path_7164" data-name="Path 7164" d="M28.927,287.526a25.862,25.862,0,0,1-2.892-1.425c-1.987-1.076-4.041-2.188-5.99-2.317a2.2,2.2,0,0,0-2.332,2.09H15.376V283.5a.644.644,0,0,0-.644-.644h-3.22a.644.644,0,0,0-.644.644v1.57H9.388a.452.452,0,0,1-.452-.452V284.6a1.742,1.742,0,0,0-1.74-1.74H.644A.644.644,0,0,0,0,283.5v9.258a.644.644,0,0,0,.644.644H7.2a1.742,1.742,0,0,0,1.74-1.74v-.022a.453.453,0,0,1,.452-.452h1.48v1.57a.644.644,0,0,0,.644.644h3.22a.644.644,0,0,0,.644-.644v-2.375h2.337a2.2,2.2,0,0,0,2.187,2.1q.072,0,.145,0c1.949-.129,4-1.241,5.99-2.317a25.862,25.862,0,0,1,2.892-1.426.644.644,0,0,0,0-1.2ZM10.868,289.9H9.388a1.742,1.742,0,0,0-1.74,1.741v.022a.452.452,0,0,1-.452.452H1.288v-7.97H7.2a.453.453,0,0,1,.452.452v.022a1.741,1.741,0,0,0,1.74,1.74h1.48Zm3.22,2.214H12.156v-7.97h1.932Zm8.211-3.341h3.586l-.464.251c-1.865,1.009-3.793,2.054-5.462,2.165a.911.911,0,0,1-.961-.919v-.531a.644.644,0,0,0-.644-.644H15.376v-1.932h2.979a.644.644,0,0,0,.644-.644v-.531a.912.912,0,0,1,.961-.919c1.669.11,3.6,1.155,5.462,2.165l.464.25H22.3a.644.644,0,1,0,0,1.288Z" transform="translate(305.652 -13122.096)" fill="#fff"/>
      <path id="Path_7165" data-name="Path 7165" d="M163.434,34.883a.644.644,0,0,0-.869-.274,7.964,7.964,0,0,1-8.91-1.067l-.77-.77a7.961,7.961,0,0,1-.317-10.085.644.644,0,1,0-1.021-.785,9.263,9.263,0,0,0-1.635,7.9l-3.427-3.428h0l-2.846-2.847a.645.645,0,0,0-.911,0l-2.846,2.847a.643.643,0,0,0,0,.91l2.846,2.847a.645.645,0,0,0,.911,0l2.39-2.391,4.213,4.212-2.391,2.391a.645.645,0,0,0,0,.911L150.7,38.1a.642.642,0,0,0,.91,0L154,35.707l4.213,4.213-2.391,2.391a.642.642,0,0,0,0,.91l2.846,2.847a.645.645,0,0,0,.911,0l2.846-2.847a.643.643,0,0,0,0-.91l-2.846-2.847h0l-2.949-2.949a9.273,9.273,0,0,0,6.532-.764A.644.644,0,0,0,163.434,34.883Zm-20.251-6.12-1.935-1.936,1.935-1.935,1.935,1.935Zm7.969,7.969L149.217,34.8l1.935-1.935,1.936,1.935Zm9.905,6.035L159.122,44.7l-1.935-1.935,1.935-1.936Z" transform="translate(177.206 -12881.92)" fill="#fff"/>
    </g>
  </g>
</svg>
