<svg xmlns="http://www.w3.org/2000/svg" width="132.111" height="132.111" viewBox="0 0 132.111 132.111"><path d="M110.093,41.457a38.266,38.266,0,0,1-10.407,2.924,17.556,17.556,0,0,0,8-10.063A35.917,35.917,0,0,1,96.159,38.7,17.166,17.166,0,0,0,83,33.028,18.06,18.06,0,0,0,64.937,51.09a16.572,16.572,0,0,0,.43,4.128,51.133,51.133,0,0,1-20.814-5.591A51.2,51.2,0,0,1,28.039,36.3a17.888,17.888,0,0,0-2.494,9.117q0,9.805,7.827,15.052a21.3,21.3,0,0,1-8.6-2.236V58.4a17.177,17.177,0,0,0,4.3,11.482,18.064,18.064,0,0,0,10.579,6.236,16.775,16.775,0,0,1-4.387.688,24.207,24.207,0,0,1-3.354-.344,18.361,18.361,0,0,0,6.408,8.945,17.163,17.163,0,0,0,10.45,3.612,35.689,35.689,0,0,1-22.449,7.741,34.665,34.665,0,0,1-4.3-.258,50.668,50.668,0,0,0,27.7,8.085,52.629,52.629,0,0,0,18.062-3.053,46.524,46.524,0,0,0,14.45-8.171A54.241,54.241,0,0,0,92.59,81.58a52.048,52.048,0,0,0,8.558-28.426,22.9,22.9,0,0,0-.086-2.322A35.1,35.1,0,0,0,110.093,41.457Zm22.018-16.686V107.34a24.814,24.814,0,0,1-24.771,24.771H24.771a23.859,23.859,0,0,1-17.5-7.268A23.859,23.859,0,0,1,0,107.34V24.771a23.858,23.858,0,0,1,7.268-17.5A23.858,23.858,0,0,1,24.771,0H107.34a23.859,23.859,0,0,1,17.5,7.268A23.859,23.859,0,0,1,132.111,24.771Z" fill="#67bbf2"/></svg>