<svg xmlns="http://www.w3.org/2000/svg" width="105" height="41.723" viewBox="0 0 105 41.723">
  <g id="Group_2862" data-name="Group 2862" transform="translate(-110 -18.277)">
    <g id="Path_7124" data-name="Path 7124" transform="translate(110 19.138)" fill="rgba(255,255,255,0)">
      <path d="M 100 39.5 L 5 39.5 C 2.518693447113037 39.5 0.5 37.48130798339844 0.5 35 L 0.5 5 C 0.5 2.518693447113037 2.518693447113037 0.5 5 0.5 L 100 0.5 C 102.4813079833984 0.5 104.5 2.518693447113037 104.5 5 L 104.5 35 C 104.5 37.48130798339844 102.4813079833984 39.5 100 39.5 Z" stroke="none"/>
      <path d="M 5 1 C 2.794387817382812 1 1 2.794384002685547 1 5 L 1 35 C 1 37.20561599731445 2.794387817382812 39 5 39 L 100 39 C 102.2056121826172 39 104 37.20561599731445 104 35 L 104 5 C 104 2.794384002685547 102.2056121826172 1 100 1 L 5 1 M 5 0 L 100 0 C 102.7614135742188 0 105 2.238571166992188 105 5 L 105 35 C 105 37.76142883300781 102.7614135742188 40 100 40 L 5 40 C 2.238571166992188 40 0 37.76142883300781 0 35 L 0 5 C 0 2.238571166992188 2.238571166992188 0 5 0 Z" stroke="none" fill="#181819"/>
    </g>
    <g id="Path_7123" data-name="Path 7123" transform="translate(117.5 26.638)" fill="rgba(255,255,255,0)">
      <path d="M 85 24.5 L 5 24.5 C 2.518694162368774 24.5 0.5 22.4813060760498 0.5 20 L 0.5 5 C 0.5 2.518694162368774 2.518694162368774 0.5 5 0.5 L 85 0.5 C 87.48130798339844 0.5 89.5 2.518694162368774 89.5 5 L 89.5 20 C 89.5 22.4813060760498 87.48130798339844 24.5 85 24.5 Z" stroke="none"/>
      <path d="M 5 1 C 2.794387817382812 1 1 2.794387817382812 1 5 L 1 20 C 1 22.20561218261719 2.794387817382812 24 5 24 L 85 24 C 87.20561218261719 24 89 22.20561218261719 89 20 L 89 5 C 89 2.794387817382812 87.20561218261719 1 85 1 L 5 1 M 5 0 L 85 0 C 87.76142883300781 0 90 2.238574981689453 90 5 L 90 20 C 90 22.76142501831055 87.76142883300781 25 85 25 L 5 25 C 2.238578796386719 25 0 22.76142501831055 0 20 L 0 5 C 0 2.238574981689453 2.238578796386719 0 5 0 Z" stroke="none" fill="#fff"/>
    </g>
    <g id="Path_7130" data-name="Path 7130" transform="matrix(0.966, -0.259, 0.259, 0.966, 116.564, 41.571)" fill="rgba(255,255,255,0)">
      <path d="M 85 18.57950401306152 L 5 18.57950401306152 C 2.518694162368774 18.57950401306152 0.5 17.09199905395508 0.5 15.26359939575195 L 0.5 3.815904855728149 C 0.5 1.987504959106445 2.518694162368774 0.499999076128006 5 0.499999076128006 L 85 0.499999076128006 C 87.48130798339844 0.499999076128006 89.5 1.987504959106445 89.5 3.815904855728149 L 89.5 15.26359939575195 C 89.5 17.09199905395508 87.48130798339844 18.57950401306152 85 18.57950401306152 Z" stroke="none"/>
      <path d="M 5 1.000001907348633 C 3.882415771484375 1.000001907348633 2.842262268066406 1.324102401733398 2.071151733398438 1.912601470947266 C 1.380409240722656 2.439752578735352 1 3.115701675415039 1 3.815901756286621 L 1 15.2636022567749 C 1 15.96380233764648 1.380409240722656 16.63975143432617 2.071151733398438 17.16690254211426 C 2.842262268066406 17.75540161132812 3.882415771484375 18.07950210571289 5 18.07950210571289 L 85 18.07950210571289 C 86.11758422851562 18.07950210571289 87.15773773193359 17.75540161132812 87.92884826660156 17.16690254211426 C 88.61959075927734 16.63975143432617 89 15.96380233764648 89 15.2636022567749 L 89 3.815901756286621 C 89 3.115701675415039 88.61959075927734 2.439752578735352 87.92884826660156 1.912601470947266 C 87.15773773193359 1.324102401733398 86.11758422851562 1.000001907348633 85 1.000001907348633 L 5 1.000001907348633 M 5 1.9073486328125e-06 L 85 1.9073486328125e-06 C 87.76142883300781 1.9073486328125e-06 90 1.708438873291016 90 3.815901756286621 L 90 15.2636022567749 C 90 17.37106513977051 87.76142883300781 19.07950210571289 85 19.07950210571289 L 5 19.07950210571289 C 2.238578796386719 19.07950210571289 0 17.37106513977051 0 15.2636022567749 L 0 3.815901756286621 C 0 1.708438873291016 2.238578796386719 1.9073486328125e-06 5 1.9073486328125e-06 Z" stroke="none" fill="#fff"/>
    </g>
    <g id="Path_7131" data-name="Path 7131" transform="matrix(0.966, 0.259, -0.259, 0.966, 121.481, 18.356)" fill="rgba(255,255,255,0)">
      <path d="M 85 18.41616058349609 L 5 18.41616058349609 C 2.518694162368774 18.41616058349609 0.5 16.94330215454102 0.5 15.13292503356934 L 0.5 3.783231258392334 C 0.5 1.972854852676392 2.518694162368774 0.4999960362911224 5 0.4999960362911224 L 85 0.4999960362911224 C 87.48130798339844 0.4999960362911224 89.5 1.972854852676392 89.5 3.783231258392334 L 89.5 15.13292503356934 C 89.5 16.94330215454102 87.48130798339844 18.41616058349609 85 18.41616058349609 Z" stroke="none"/>
      <path d="M 5 1.000003814697266 C 3.880928039550781 1.000003814697266 2.839599609375 1.321590423583984 2.067848205566406 1.905529022216797 C 1.379234313964844 2.426565170288086 1 3.093416213989258 1 3.783227920532227 L 1 15.1329288482666 C 1 15.82274055480957 1.379234313964844 16.48957824707031 2.067848205566406 17.01061630249023 C 2.839599609375 17.59456634521484 3.880928039550781 17.91615295410156 5 17.91615295410156 L 85 17.91615295410156 C 86.11907196044922 17.91615295410156 87.160400390625 17.59456634521484 87.93215179443359 17.01061630249023 C 88.62076568603516 16.48957824707031 89 15.82274055480957 89 15.1329288482666 L 89 3.783227920532227 C 89 3.093416213989258 88.62076568603516 2.426565170288086 87.93215179443359 1.905529022216797 C 87.160400390625 1.321590423583984 86.11907196044922 1.000003814697266 85 1.000003814697266 L 5 1.000003814697266 M 5 3.814697265625e-06 L 85 3.814697265625e-06 C 87.76142883300781 3.814697265625e-06 90 1.693803787231445 90 3.783227920532227 L 90 15.1329288482666 C 90 17.22234153747559 87.76142883300781 18.91615295410156 85 18.91615295410156 L 5 18.91615295410156 C 2.238578796386719 18.91615295410156 0 17.22234153747559 0 15.1329288482666 L 0 3.783227920532227 C 0 1.693803787231445 2.238578796386719 3.814697265625e-06 5 3.814697265625e-06 Z" stroke="none" fill="#fff"/>
    </g>
    <g id="Path_7122" data-name="Path 7122" transform="translate(127.5 32.138)" fill="rgba(255,255,255,0)">
      <path d="M 65 13.5 L 5 13.5 C 2.51869010925293 13.5 0.5 11.48130989074707 0.5 9 L 0.5 5 C 0.5 2.51869010925293 2.51869010925293 0.5 5 0.5 L 65 0.5 C 67.48130798339844 0.5 69.5 2.51869010925293 69.5 5 L 69.5 9 C 69.5 11.48130989074707 67.48130798339844 13.5 65 13.5 Z" stroke="none"/>
      <path d="M 5 1 C 2.794387817382812 1 1 2.794389724731445 1 5 L 1 9 C 1 11.20561027526855 2.794387817382812 13 5 13 L 65 13 C 67.20561218261719 13 69 11.20561027526855 69 9 L 69 5 C 69 2.794389724731445 67.20561218261719 1 65 1 L 5 1 M 5 0 L 65 0 C 67.76142120361328 0 70 2.238579750061035 70 5 L 70 9 C 70 11.76142024993896 67.76142120361328 14 65 14 L 5 14 C 2.238578796386719 14 0 11.76142024993896 0 9 L 0 5 C 0 2.238579750061035 2.238578796386719 0 5 0 Z" stroke="none" fill="#fff"/>
    </g>
    <g id="Path_7128" data-name="Path 7128" transform="matrix(0.966, -0.259, 0.259, 0.966, 127.514, 43.799)" fill="rgba(255,255,255,0)">
      <path d="M 65 8.607264518737793 L 5 8.607264518737793 C 3.7600998878479 8.607264518737793 2.601320028305054 8.297654151916504 1.737110018730164 7.73548412322998 C 0.9393500089645386 7.216524124145508 0.5 6.548573970794678 0.5 5.854674339294434 L 0.5 3.252594232559204 C 0.5 2.558694124221802 0.9393500089645386 1.890744209289551 1.737110018730164 1.371784210205078 C 2.601320028305054 0.8096141815185547 3.7600998878479 0.5000041723251343 5 0.5000041723251343 L 65 0.5000041723251343 C 66.23989868164062 0.5000041723251343 67.398681640625 0.8096141815185547 68.26289367675781 1.371784210205078 C 69.06065368652344 1.890744209289551 69.5 2.558694124221802 69.5 3.252594232559204 L 69.5 5.854674339294434 C 69.5 6.548573970794678 69.06065368652344 7.216524124145508 68.26289367675781 7.73548412322998 C 67.398681640625 8.297654151916504 66.23989868164062 8.607264518737793 65 8.607264518737793 Z" stroke="none"/>
      <path d="M 5 1.000003814697266 C 3.872329711914062 1.000003814697266 2.782432556152344 1.28827428817749 2.009757995605469 1.790914058685303 C 1.632652282714844 2.036224365234375 1 2.552334308624268 1 3.252593994140625 L 1 5.854674339294434 C 1 6.554934501647949 1.632652282714844 7.071043968200684 2.009757995605469 7.316354274749756 C 2.782432556152344 7.818994045257568 3.872329711914062 8.107264518737793 5 8.107264518737793 L 65 8.107264518737793 C 66.12767028808594 8.107264518737793 67.21756744384766 7.818994045257568 67.99024200439453 7.316354274749756 C 68.36734771728516 7.071043968200684 69 6.554934501647949 69 5.854674339294434 L 69 3.252593994140625 C 69 2.552334308624268 68.36734771728516 2.036224365234375 67.99024200439453 1.790914058685303 C 67.21756744384766 1.28827428817749 66.12767028808594 1.000003814697266 65 1.000003814697266 L 5 1.000003814697266 M 5 3.814697265625e-06 L 65 3.814697265625e-06 C 67.76142120361328 3.814697265625e-06 70 1.456233978271484 70 3.252593994140625 L 70 5.854674339294434 C 70 7.651034355163574 67.76142120361328 9.107264518737793 65 9.107264518737793 L 5 9.107264518737793 C 2.238578796386719 9.107264518737793 0 7.651034355163574 0 5.854674339294434 L 0 3.252593994140625 C 0 1.456233978271484 2.238578796386719 3.814697265625e-06 5 3.814697265625e-06 Z" stroke="none" fill="#fff"/>
    </g>
    <g id="Path_7129" data-name="Path 7129" transform="matrix(0.966, 0.259, -0.259, 0.966, 129.879, 25.651)" fill="rgba(255,255,255,0)">
      <path d="M 65 8.670775413513184 L 5 8.670775413513184 C 3.76065993309021 8.670775413513184 2.602349996566772 8.359115600585938 1.738450050354004 7.793215751647949 C 0.9398199915885925 7.270075798034668 0.5 6.596115589141846 0.5 5.895495891571045 L 0.5 3.275275707244873 C 0.5 2.574655771255493 0.9398199915885925 1.900705814361572 1.738450050354004 1.377555847167969 C 2.602349996566772 0.8116558194160461 3.76065993309021 0.4999957978725433 5 0.4999957978725433 L 65 0.4999957978725433 C 66.23934173583984 0.4999957978725433 67.39765167236328 0.8116558194160461 68.26155090332031 1.377555847167969 C 69.0601806640625 1.900705814361572 69.5 2.574655771255493 69.5 3.275275707244873 L 69.5 5.895495891571045 C 69.5 6.596115589141846 69.0601806640625 7.270075798034668 68.26155090332031 7.793215751647949 C 67.39765167236328 8.359115600585938 66.23934173583984 8.670775413513184 65 8.670775413513184 Z" stroke="none"/>
      <path d="M 5 0.9999961853027344 C 3.873428344726562 0.9999961853027344 2.784500122070312 1.290055751800537 2.012428283691406 1.795815944671631 C 1.634323120117188 2.043495655059814 1 2.565055847167969 1 3.275275707244873 L 1 5.895495891571045 C 1 6.605725765228271 1.634323120117188 7.127285957336426 2.012428283691406 7.374965667724609 C 2.784500122070312 7.880715847015381 3.873428344726562 8.170775413513184 5 8.170775413513184 L 65 8.170775413513184 C 66.12657165527344 8.170775413513184 67.21549987792969 7.880715847015381 67.98757171630859 7.374965667724609 C 68.36567687988281 7.127285957336426 69 6.605725765228271 69 5.895495891571045 L 69 3.275275707244873 C 69 2.565055847167969 68.36567687988281 2.043495655059814 67.98757171630859 1.795815944671631 C 67.21549987792969 1.290055751800537 66.12657165527344 0.9999961853027344 65 0.9999961853027344 L 5 0.9999961853027344 M 5 -3.814697265625e-06 L 65 -3.814697265625e-06 C 67.76142120361328 -3.814697265625e-06 70 1.466395854949951 70 3.275275707244873 L 70 5.895495891571045 C 70 7.704385757446289 67.76142120361328 9.170775413513184 65 9.170775413513184 L 5 9.170775413513184 C 2.238578796386719 9.170775413513184 0 7.704385757446289 0 5.895495891571045 L 0 3.275275707244873 C 0 1.466395854949951 2.238578796386719 -3.814697265625e-06 5 -3.814697265625e-06 Z" stroke="none" fill="#fff"/>
    </g>
    <g id="Group_2861" data-name="Group 2861" transform="translate(128.522 21.938)">
      <path id="Path_7158" data-name="Path 7158" d="M6.662-15.306H8.087c1.924.018,2.6,1.336,2.957,3.651l.16,1.015c.036.107.2.125.16,0l-.125-1.015c-.267-1.924-.107-3.633-.214-3.687a11.465,11.465,0,0,0-2.173-.125H8.835c-1.8,0-2.084.036-2.868.036s-2.44-.036-2.885-.036a11.465,11.465,0,0,0-2.173.125c-.107.053.053,1.763-.2,3.687L.571-10.639c-.036.125.142.107.178,0l.142-1.015c.356-2.315,1.033-3.633,2.939-3.633.41,0,.962,0,1.46-.018v7.748c0,4.381-.089,4.453-.962,4.453H4.008c-.142,0-.142.16,0,.16.5,0,1.71-.053,1.977-.053.249,0,1.46.053,1.959.053.142,0,.142-.16,0-.16H7.624c-.873,0-.962-.071-.962-4.453Zm6.5,10.4c0,1.532-.071,1.8-1.086,1.8-.142,0-.142.16,0,.16.517,0,1.532-.036,1.8-.036s1.193.036,1.71.036c.142,0,.142-.16,0-.16-1,0-1.069-.267-1.069-1.8v-7c0-.089-.267-.16-.321-.125a5.922,5.922,0,0,1-2.226,1.015c-.142.036-.089.178.053.142.891-.2,1.14-.142,1.14,1.211Zm-.321-9.582a.92.92,0,0,0,.926.926.935.935,0,0,0,.944-.926.95.95,0,0,0-.944-.944A.935.935,0,0,0,12.843-14.486ZM16.316-2.945c.517,0,1.478-.036,1.745-.036.285,0,1.318.036,1.46.036s.142-.16,0-.16H18.471V-9.873c.8-1.122,1.443-1.621,2.565-1.621,1.086,0,2.03.695,2.03,2.9v3.562c0,1.888.018,1.924-1.086,1.924-.142,0-.142.16,0,.16.517,0,1.514-.036,1.781-.036.285,0,1.567.036,1.71.036s.142-.16,0-.16c-.873.018-1.069-.053-1.069-.73v-6c.659-.908,1.247-1.656,2.565-1.656,1.086,0,2.226.695,2.226,2.9v3.562c0,1.888-.018,1.924-1.229,1.924-.142,0-.142.16,0,.16.517,0,1.567-.036,1.835-.036.285,0,1.5.036,1.639.036s.142-.16,0-.16c-.873.018-.908-.053-.908-.73V-8.413c0-2.8-1.425-3.616-2.974-3.616-1.389,0-2.315.766-3.224,2.013a2.641,2.641,0,0,0-2.707-2.013,3.78,3.78,0,0,0-3.17,1.959,2.838,2.838,0,0,0-.712-1.781c-.053-.053-.071-.053-.107-.018a4.619,4.619,0,0,1-1.3.748c-.036.018-.053.053,0,.107a2.043,2.043,0,0,1,.819,1.354v4.6c0,1.906-.036,1.959-.837,1.959C16.173-3.105,16.173-2.945,16.316-2.945Zm15.87,0c.517,0,1.478-.036,1.745-.036.285,0,1.318.036,1.46.036s.142-.16,0-.16H34.34V-9.873c.8-1.122,1.443-1.621,2.565-1.621,1.086,0,2.03.695,2.03,2.9v3.562c0,1.888.018,1.924-1.086,1.924-.142,0-.142.16,0,.16.517,0,1.514-.036,1.781-.036.285,0,1.567.036,1.71.036s.142-.16,0-.16c-.873.018-1.069-.053-1.069-.73v-6c.659-.908,1.247-1.656,2.565-1.656,1.086,0,2.226.695,2.226,2.9v3.562c0,1.888-.018,1.924-1.229,1.924-.142,0-.142.16,0,.16.517,0,1.567-.036,1.835-.036.285,0,1.5.036,1.639.036s.142-.16,0-.16c-.873.018-.908-.053-.908-.73V-8.413c0-2.8-1.425-3.616-2.974-3.616-1.389,0-2.315.766-3.224,2.013a2.641,2.641,0,0,0-2.707-2.013,3.78,3.78,0,0,0-3.17,1.959,2.839,2.839,0,0,0-.712-1.781c-.053-.053-.071-.053-.107-.018a4.619,4.619,0,0,1-1.3.748c-.036.018-.053.053,0,.107a2.043,2.043,0,0,1,.819,1.354v4.6c0,1.906-.036,1.959-.837,1.959C32.043-3.105,32.043-2.945,32.185-2.945ZM49.141-.523c-.659,0-1-.517-1.639-.517a1.024,1.024,0,0,0-.98.819c0,.321.517.695,1.478.695,1.728,0,2.814-1,3.722-3.081l2.85-6.412c.748-1.71,1.46-2.689,2.3-2.672a.081.081,0,1,0,0-.16c-.142,0-1.336.036-1.6.036-.249,0-1.176-.036-1.674-.036-.142,0-.142.16,0,.16,1.14,0,1.567.855.819,2.565L52.418-4.637,50.05-9.891c-.73-1.585-.588-1.8.445-1.8.142,0,.142-.16,0-.16-.481,0-1.656.036-1.906.036-.267,0-1.621-.036-1.763-.036a.081.081,0,1,0,0,.16c.855-.018,1.086.16,2.084,2.333l2.832,6.269-.2.445C50.726-.79,50.032-.523,49.141-.523Z" transform="translate(3.412 33.927)" fill="#181819"/>
      <path id="Path_7157" data-name="Path 7157" d="M8.249-7.825c1.692,3.954,1.55,4.257.784,4.257H8.658c-.142,0-.089.16.053.16.517,0,1.888-.053,2.155-.053s1.282.053,1.8.053c.071,0,.107-.036.107-.089,0-.036-.036-.071-.125-.071h-.142c-.855,0-1.122-.285-2.885-4.453l-3.242-7.73c-.018-.036-.071-.053-.178-.053H6.022c-.089,0-.107.018-.125.053L2.46-7.166A18.824,18.824,0,0,1,1.284-4.637C.91-3.942.5-3.568,0-3.568H-.069c-.053,0-.107.036-.107.071,0,.053.036.089.107.089.445,0,1.247-.036,1.478-.036.3,0,1.71.036,2.03.036.178,0,.214-.053.214-.107S3.618-3.6,3.529-3.6c-.071,0-.356.053-.5.053-.641,0-1-.3-1-.873a8.265,8.265,0,0,1,.641-2.654l.3-.748c.534.018,2.315.053,3.188.053Zm-.089-.2V-8h-2.1L3.03-7.985l2.476-6.252Zm11.7-3.633a3.75,3.75,0,0,0-2.28-.837A5.172,5.172,0,0,0,12.47-7.415,3.914,3.914,0,0,0,16.21-3.23a4.524,4.524,0,0,0,3.651-1.995c-.018,1.015-.125,1.728-.125,1.835,0,.125.071.2.214.16a9.192,9.192,0,0,1,2.155-.178c.142,0,.142-.16,0-.16-.891,0-.908-.214-.908-1.959V-17.764c0-.089-.3-.16-.356-.125a6.64,6.64,0,0,1-2.155.819c-.142.018-.142.178,0,.16.891-.16,1.176-.16,1.176,1.371ZM16.833-12.1a4.627,4.627,0,0,1,3.028,1.763V-5.51a3.348,3.348,0,0,1-2.743,1.692c-2.209,0-3.4-2.226-3.4-4.31C13.717-10.746,14.91-12.1,16.833-12.1ZM23.6-6.845c0,2.8,1.265,3.616,2.868,3.616a4.071,4.071,0,0,0,3.3-1.941,13,13,0,0,1-.178,1.781c0,.107,0,.178.142.16a17.371,17.371,0,0,1,2.315-.178.08.08,0,0,0,0-.16c-.873,0-.944-.16-.944-1.959V-12.3c0-.089-.267-.16-.321-.125a6.639,6.639,0,0,1-2.155.8c-.142.018-.142.178,0,.16.891-.16,1.14-.2,1.14,1.336v4.738a3.166,3.166,0,0,1-2.707,1.621c-1.086,0-2.1-.695-2.1-2.9V-12.3c0-.089-.267-.16-.321-.125a6.749,6.749,0,0,1-2.173.8c-.142.018-.142.178,0,.16.891-.16,1.14-.2,1.14,1.336Zm9.867,3.3c0,.107.036.16.089.16.089,0,.2-.125.766-.908A3.973,3.973,0,0,0,37.031-3.23a5.157,5.157,0,0,0,5.094-5.076,3.927,3.927,0,0,0-3.758-4.186A4.433,4.433,0,0,0,34.8-10.568v-7.2c0-.089-.267-.16-.321-.125a6.7,6.7,0,0,1-2.155.98c-.142.018-.142.178,0,.16.891-.16,1.14-.321,1.14,1.211Zm4.31-.071A4.385,4.385,0,0,1,34.8-5.3v-5.076A3.336,3.336,0,0,1,37.494-11.9c2.209,0,3.313,2.155,3.313,4.239C40.807-5.047,39.7-3.622,37.779-3.622ZM44.12-5.367c0,1.532-.071,1.8-1.086,1.8-.142,0-.142.16,0,.16.517,0,1.532-.036,1.8-.036s1.193.036,1.71.036c.142,0,.142-.16,0-.16-1,0-1.069-.267-1.069-1.8v-7c0-.089-.267-.16-.321-.125a5.922,5.922,0,0,1-2.226,1.015c-.142.036-.089.178.053.142.891-.2,1.14-.142,1.14,1.211ZM43.8-14.949a.92.92,0,0,0,.926.926.935.935,0,0,0,.944-.926.95.95,0,0,0-.944-.944A.935.935,0,0,0,43.8-14.949Z" transform="translate(17.706 19.007)" fill="#181819"/>
      <path id="Path_7160" data-name="Path 7160" d="M191.657,307.588c-.076.041-.355.083-.433.126a7.575,7.575,0,0,1-2.731,1.082.456.456,0,0,1-.481-.459v-.266a.322.322,0,0,0-.322-.322H186V306.38h1.691a.322.322,0,0,0,.322-.322v-.265a.456.456,0,0,1,.481-.459,7.575,7.575,0,0,1,2.731,1.082c.078.042.357.084.433.125Z" transform="translate(-178.513 -293.914)" fill="#181819"/>
      <path id="Path_7161" data-name="Path 7161" d="M353,254.652l-1.228,1.228-1.228-1.228,1.228-1.228Z" transform="translate(-336.43 -244.095)" fill="#3e81c8"/>
      <path id="Path_7162" data-name="Path 7162" d="M254.46,156.149l-1.208,1.207-1.207-1.207,1.207-1.207Z" transform="translate(-241.9 -149.576)" fill="#3e81c8"/>
      <path id="Path_7163" data-name="Path 7163" d="M153.166,54.742l-1.308,1.309-1.308-1.309,1.308-1.308Z" transform="translate(-144.49 -52.154)" fill="#3e81c8"/>
      <path id="Path_7164" data-name="Path 7164" d="M14.464,285.19a12.928,12.928,0,0,1-1.446-.712,7.976,7.976,0,0,0-3-1.158,1.1,1.1,0,0,0-1.166,1.045H7.688v-1.187a.322.322,0,0,0-.322-.322H5.756a.322.322,0,0,0-.322.322v.785h-.74a.226.226,0,0,1-.226-.226v-.011a.871.871,0,0,0-.87-.87H.322a.322.322,0,0,0-.322.322v4.629a.322.322,0,0,0,.322.322H3.6a.871.871,0,0,0,.87-.87v-.011a.226.226,0,0,1,.226-.226h.74v.785a.322.322,0,0,0,.322.322h1.61a.322.322,0,0,0,.322-.322v-1.187H8.857a1.1,1.1,0,0,0,1.094,1.048l.072,0a7.975,7.975,0,0,0,3-1.158,12.931,12.931,0,0,1,1.446-.713.322.322,0,0,0,0-.6Zm-9.03,1.187h-.74a.871.871,0,0,0-.87.87v.011a.226.226,0,0,1-.226.226H.644V283.5H3.6a.226.226,0,0,1,.226.226v.011a.871.871,0,0,0,.87.87h.74Zm1.61,1.107H6.078V283.5h.966Zm4.106-1.67h1.793l-.232.126a7.575,7.575,0,0,1-2.731,1.082.456.456,0,0,1-.481-.459V286.3a.322.322,0,0,0-.322-.322H7.688v-.966H9.177a.322.322,0,0,0,.322-.322v-.265a.456.456,0,0,1,.481-.459,7.575,7.575,0,0,1,2.731,1.082l.232.125H11.15a.322.322,0,1,0,0,.644Z" transform="translate(0 -272.341)" fill="#181819"/>
      <path id="Path_7165" data-name="Path 7165" d="M151.563,28.267a.322.322,0,0,0-.434-.137,3.982,3.982,0,0,1-4.455-.533l-.385-.385a3.98,3.98,0,0,1-.159-5.042.322.322,0,1,0-.51-.392,4.631,4.631,0,0,0-.818,3.948l-1.714-1.714h0l-1.423-1.423a.323.323,0,0,0-.456,0l-1.423,1.423a.321.321,0,0,0,0,.455l1.423,1.423a.323.323,0,0,0,.456,0l1.2-1.2,2.106,2.106-1.2,1.2a.323.323,0,0,0,0,.456l1.423,1.423a.321.321,0,0,0,.455,0l1.2-1.2,2.106,2.106-1.2,1.2a.321.321,0,0,0,0,.455l1.423,1.423a.323.323,0,0,0,.456,0l1.423-1.423a.321.321,0,0,0,0-.455l-1.423-1.423h0l-1.474-1.474a4.636,4.636,0,0,0,3.266-.382A.322.322,0,0,0,151.563,28.267Zm-10.125-3.06-.968-.968.968-.968.968.968Zm3.985,3.985-.968-.968.968-.968.968.968Zm4.953,3.017-.968.968-.968-.968.968-.968Z" transform="translate(-134.07 -21.651)" fill="#181819"/>
    </g>
  </g>
</svg>
